HIERARCHY
ROOT Hips
{
  OFFSET -331.093 83.8371 -317.828
  CHANNELS 6 Xposition Yposition Zposition Zrotation Xrotation Yrotation
  JOINT LeftUpLeg
  {
    OFFSET 8.64259 1.95398 -2.38835
    CHANNELS 3 Zrotation Xrotation Yrotation
    JOINT LeftLeg
    {
      OFFSET 43.7702 0 0
      CHANNELS 3 Zrotation Xrotation Yrotation
      JOINT LeftFoot
      {
        OFFSET 40.6238 0 0
        CHANNELS 3 Zrotation Xrotation Yrotation
        JOINT LeftToeBase
        {
          OFFSET 12.7242 0 0
          CHANNELS 3 Zrotation Xrotation Yrotation
          End Site
          {
            OFFSET 0 0 0
          }
        }
      }
    }
  }
  JOINT RightUpLeg
  {
    OFFSET -8.2249 1.95398 -2.59336
    CHANNELS 3 Zrotation Xrotation Yrotation
    JOINT RightLeg
    {
      OFFSET 43.5653 0 0
      CHANNELS 3 Zrotation Xrotation Yrotation
      JOINT RightFoot
      {
        OFFSET 40.6238 0 0
        CHANNELS 3 Zrotation Xrotation Yrotation
        JOINT RightToeBase
        {
          OFFSET 12.7242 0 0
          CHANNELS 3 Zrotation Xrotation Yrotation
          End Site
          {
            OFFSET 0 0 0
          }
        }
      }
    }
  }
  JOINT Spine
  {
    OFFSET 0.165834 0.87714 6.61349
    CHANNELS 3 Zrotation Xrotation Yrotation
    JOINT Spine1
    {
      OFFSET 7.38963 1.71661e-005 0
      CHANNELS 3 Zrotation Xrotation Yrotation
      JOINT Spine2
      {
        OFFSET 11.9445 1.14441e-005 0
        CHANNELS 3 Zrotation Xrotation Yrotation
        JOINT Spine3
        {
          OFFSET 14.7254 4.19617e-005 0
          CHANNELS 3 Zrotation Xrotation Yrotation
          JOINT Spine4
          {
            OFFSET 10.9679 0 0
            CHANNELS 3 Zrotation Xrotation Yrotation
            JOINT RightShoulder
            {
              OFFSET 2.46616 -1.6653 3.69651
              CHANNELS 3 Zrotation Xrotation Yrotation
              JOINT RightArm
              {
                OFFSET 13.0012 0 0
                CHANNELS 3 Zrotation Xrotation Yrotation
                JOINT RightForeArm
                {
                  OFFSET 28.7848 1.62311e-005 0
                  CHANNELS 3 Zrotation Xrotation Yrotation
                  JOINT RightHand
                  {
                    OFFSET 26.5688 1.62095e-005 0
                    CHANNELS 3 Zrotation Xrotation Yrotation
                    End Site
                    {
                      OFFSET 0 0 0
                    }
                  }
                }
              }
            }
            JOINT LeftShoulder
            {
              OFFSET 2.38034 -1.29275 -3.7523
              CHANNELS 3 Zrotation Xrotation Yrotation
              JOINT LeftArm
              {
                OFFSET 16.3182 6.07031e-005 0
                CHANNELS 3 Zrotation Xrotation Yrotation
                JOINT LeftForeArm
                {
                  OFFSET 27.0901 0 0
                  CHANNELS 3 Zrotation Xrotation Yrotation
                  JOINT LeftHand
                  {
                    OFFSET 24.5451 1.51738e-005 0
                    CHANNELS 3 Zrotation Xrotation Yrotation
                    End Site
                    {
                      OFFSET 0 0 0
                    }
                  }
                }
              }
            }
            JOINT Neck
            {
              OFFSET 5.0226 -0.0266342 0
              CHANNELS 3 Zrotation Xrotation Yrotation
              JOINT Head
              {
                OFFSET 6.69364 2.86102e-005 0
                CHANNELS 3 Zrotation Xrotation Yrotation
                End Site
                {
                  OFFSET 0 0 0
                }
              }
            }
          }
        }
      }
    }
  }
}
MOTION
Frames:	10
Frame Time:	0.0416667
-6468.39 213.828 -5721.37 83.3778 -12.8377 91.4811 -128.081 -41.4186 171.538 -0.302205 36.1252 0.0050677 95.3882 -31.017 -35.4062 35.8939 -5.21149 -40.6199 -162.071 76.6186 31.2979 -0.221501 -19.6911 0.12026 6.64484 25.0562 20.4123 20.4509 0.790544 14.3793 1.08917 11.635 -91.6265 3.6135 1.52564 -3.18053 -8.0606 1.38423 -3.24451 -30.5808 2.41068 -2.57554 -10.5681 2.41069 -2.57554 99.5105 -22.734 -88.1265 31.0404 -6.12816 -20.3026 -23.1625 -12.9801 -56.5352 43.6707 -6.28624 -18.6 -84.9051 -31.0843 83.6964 -45.9896 -12.8821 -8.56607 9.55742 -4.90751 -71.1103 30.243 -2.47796 -12.5179 19.6516 -18.9912 3.70175 10.852 -19.9917 -7.12911 
-6472.43 213.248 -5715.61 81.6437 -10.1231 94.1967 -130.469 -36.0482 172.413 -0.39738 36.3879 0.0337591 98.4009 -29.0101 -33.2943 50.0178 5.14987 -12.1268 -172.166 77.3611 39.4431 -0.357754 -18.5983 0.196642 4.5748 26.5886 21.0105 17.025 0.590098 24.5118 0.755416 10.6978 -92.3415 5.46352 0.536251 -4.61728 -6.2156 0.33275 -4.63635 -28.6937 1.89788 -4.24389 -8.68102 1.89787 -4.24391 95.9771 -25.1375 -95.5605 19.1586 -10.2308 -9.86842 -11.6508 -22.4029 -57.839 17.6857 -1.95764 -13.38 -90.9602 -39.594 75.0546 -38.5767 -16.9073 0.616955 8.02562 -7.34876 -89.4849 31.6206 0.0385401 -3.93794 17.0197 -18.0031 5.41037 9.42115 -19.1464 -4.07344 
-6460.61 193.559 -5686.22 82.5926 -11.9581 95.4263 -129.876 -37.3971 170.547 -0.565062 32.4028 0.0607503 110.36 -32.8749 -38.2126 33.976 17.4552 42.0281 -173.326 78.9349 42.9278 -0.315096 -18.71 0.180074 -1.00898 26.0569 23.092 16.9872 0.569778 24.6898 0.777787 10.3126 -92.406 6.2352 0.537436 -4.75244 -5.44441 0.328006 -4.77144 -27.919 1.93954 -4.37258 -7.90638 1.93954 -4.37258 94.0989 -27.709 -98.8905 15.3048 -14.2165 -4.51713 -16.7328 -23.4998 -62.7113 5.92555 -0.0465611 -0.76752 -93.5623 -42.8495 71.8189 -34.6475 -18.5582 1.27435 6.4487 -7.22906 -102.127 29.8262 -0.116075 -4.45765 14.9351 -17.4027 5.02342 7.82782 -18.2613 -2.40064 
-6462.41 221.556 -5699.53 81.5947 -17.083 91.1993 -127.961 -45.1108 167.735 -0.718941 33.038 0.0422486 103.337 -22.2513 -29.5471 35.9575 -4.59409 -39.9457 -156.753 78.4734 31.0199 -0.419945 -21.6371 0.178057 -0.372443 27.4155 26.9109 18.0054 0.688403 21.3556 0.928737 9.79443 -91.8598 7.28818 1.05223 -3.7172 -4.38777 0.88773 -3.75984 -26.8924 2.12022 -3.22997 -6.87972 2.12022 -3.22997 94.3547 -27.7998 -98.322 17.7414 -14.917 -2.51425 -22.4976 -24.8715 -65.1364 1.92862 0.0312279 4.16001 -93.3216 -42.7735 72.1832 -33.9221 -18.0078 -3.19178 9.47301 -8.98538 -106.82 29.4574 -0.275782 -5.02136 12.814 -16.5291 4.49088 5.99189 -17.1588 -1.2833 
-6453.32 232.699 -5681.1 76.9266 -21.1335 84.5866 -133.538 -50.8846 156.078 -0.955166 29.487 -0.0146564 106.777 -19.8077 -26.8118 33.9077 -3.97778 -31.9118 -121.453 79.2788 -0.606354 -0.189847 -22.9619 0.0887553 -9.44159 25.4324 33.2126 22.548 1.52006 22.146 0.964517 8.98503 -91.2732 8.91271 1.35705 -2.61254 -2.76027 1.24081 -2.66969 -25.2865 2.07933 -2.08422 -5.27387 2.07933 -2.08424 94.7058 -28.2119 -97.4854 20.2097 -14.0621 -0.630885 -23.0471 -21.6516 -64.8562 1.19245 -0.0430937 3.75605 -93.3946 -42.5156 71.9858 -33.5684 -18.1591 -6.34266 10.4929 -10.0559 -110.245 28.9677 -0.734948 -6.66688 11.0173 -15.3163 4.16306 4.82408 -15.7788 0.571109 
-6447.06 238.736 -5665.32 76.1239 -21.1115 83.0742 -136.029 -50.9139 153.121 -1.40068 30.1939 -0.018127 109.081 -17.9442 -25.3793 34.1395 -3.63629 -30.73 -114.347 78.4887 -7.65385 -0.22323 -23.1164 0.0970757 -18.1709 23.1658 37.4318 26.7575 2.58911 25.1708 0.516639 8.56546 -91.2119 9.74213 0.481599 -2.44342 -1.93104 0.373623 -2.46224 -24.4516 1.1935 -2.18594 -4.43895 1.19352 -2.18594 94.9243 -28.4455 -96.9758 23.0196 -13.5326 1.34713 -22.2776 -18.6757 -64.768 -1.79691 -0.275798 2.70505 -92.856 -41.7344 72.6064 -33.4178 -20.0459 -7.2611 11.6346 -11.2117 -113.369 26.2666 -0.45533 -5.80464 9.93873 -13.8441 4.26159 3.44181 -14.3355 1.46598 
-6441.65 244.252 -5658.87 73.528 -21.2107 80.4375 -140.248 -49.8428 147.757 -2.15274 33.6061 -0.0572301 109.547 -15.9681 -23.224 32.3291 -4.77776 -32.9827 -105.14 76.8377 -16.6107 -0.0731225 -24.0427 0.0533247 -24.4279 23.4356 43.7146 30.681 3.15655 23.7288 0.16732 8.13697 -91.076 10.5935 -0.161474 -2.12282 -1.07922 -0.254735 -2.11367 -23.6008 0.483818 -2.07327 -3.58812 0.483817 -2.07327 95.4829 -28.5744 -95.7913 25.6528 -13.5552 2.37823 -19.3045 -14.5436 -66.522 -5.32592 -0.483491 4.70793 -92.0439 -40.7942 73.638 -32.6373 -19.5619 -7.63334 13.0797 -11.969 -115.026 25.2479 -0.434728 -5.76541 9.91241 -12.6894 3.87726 3.41864 -13.0903 2.33287 
-6426.34 251.997 -5651.7 71.0226 -21.0439 78.1635 -143.967 -47.0606 143.167 -3.35872 38.16 -0.168644 108.659 -16.0189 -23.9399 28.1954 -6.36245 -33.7553 -100.561 74.838 -21.5342 -0.323461 -24.7617 0.112219 -28.6703 24.394 49.6975 33.9534 3.35514 20.8004 -0.103586 7.79029 -91.0163 11.283 -0.679199 -1.95521 -0.389171 -0.76459 -1.92344 -22.9126 -0.060323 -2.0689 -2.89992 -0.0603328 -2.06891 95.7865 -29.3071 -95.006 29.0056 -12.8336 5.27939 -18.8763 -10.0846 -69.5583 -7.99992 -0.640906 3.47496 -91.8148 -41.0289 74.0832 -31.1155 -16.7853 -6.08853 14.4151 -11.5033 -115.035 22.8271 -0.524183 -6.3168 10.5013 -11.6237 3.95738 2.75253 -12.0777 2.91892 
-6393.22 266.357 -5625.41 67.8611 -21.6084 74.7978 -147.867 -45.2969 137.885 -4.19652 41.9328 -0.506306 104.259 -18.1254 -25.858 19.4842 -9.30065 -33.4432 -99.9835 70.5718 -23.2181 -0.419485 -24.637 0.123229 -27.5606 25.8139 52.7116 32.9724 3.77471 24.4953 -0.152868 7.33824 -90.7944 12.1905 -0.679866 -1.50983 0.518854 -0.745679 -1.47847 -22.0095 -0.194759 -1.64432 -1.99683 -0.194738 -1.64432 96.1353 -30.5873 -94.0315 32.8501 -11.4991 8.77844 -15.3385 -6.59376 -70.6827 -9.23551 -0.637401 2.40847 -91.6302 -41.1755 74.4281 -31.1033 -11.3516 -2.97946 15.615 -8.94939 -110.413 20.777 -0.557241 -6.64829 10.1759 -11.227 3.54722 1.75772 -11.5962 3.88249 
-6340.21 293.145 -5594.88 65.6227 -21.5102 72.3444 -149.392 -44.9056 136.238 -4.09067 44.0719 -0.688959 94.1671 -21.8932 -26.5758 17.868 -9.73968 -26.8395 -108.916 67.0743 -16.2509 -0.616438 -24.1073 0.153232 -23.4046 28.4634 54.196 33.7492 3.96401 24.6811 -0.282891 7.09734 -90.6359 12.6734 -0.865475 -1.1685 1.00227 -0.916096 -1.12929 -21.5296 -0.474313 -1.37456 -1.5169 -0.474346 -1.37456 95.9895 -31.7094 -94.0978 36.4248 -10.0284 10.8249 -12.0141 -2.20038 -72.1941 -13.791 -1.02919 3.57952 -91.6199 -41.7797 74.6198 -32.6153 -6.84582 1.22293 17.2621 -4.68461 -101.442 19.0866 -0.372157 -5.85586 10.2324 -10.4061 3.62093 1.86687 -10.8078 3.9667 
